<?xml version="1.0" encoding="UTF-8"?>
<svg version="1.1" xmlns="http://www.w3.org/2000/svg" width="800" height="192">
<path d="M0 0 C52.44444444 0 52.44444444 0 64.6875 7.6875 C70.54336534 13.54336534 73.10819441 20.47428239 73.3125 28.625 C73.21538277 36.59832497 71.22763031 42.9711925 65.75 48.875 C62.18977733 52.1417553 58.40742319 54.06691966 54 56 C57.07905925 61.66125319 60.62671582 66.80862315 64.4375 72 C65.56134057 73.54156268 66.68504046 75.08322793 67.80859375 76.625 C68.34468262 77.35847656 68.88077148 78.09195313 69.43310547 78.84765625 C71.64321568 81.88354462 73.82314629 84.94019815 76 88 C75.67 88.66 75.34 89.32 75 90 C59.28603173 91.59440891 59.28603173 91.59440891 54.05126953 87.46142578 C50.49101133 83.43585438 47.85557954 78.84500171 45.25048828 74.16455078 C43.4779439 71.09633944 41.40376848 68.37550891 39.25 65.5625 C36 61.23577236 36 61.23577236 36 59 C29.73 59 23.46 59 17 59 C17 68.9 17 78.8 17 89 C11.39 89 5.78 89 0 89 C0 59.63 0 30.26 0 0 Z M17 16 C17 25.24 17 34.48 17 44 C21.125 44.061875 25.25 44.12375 29.5 44.1875 C31.42682617 44.22846802 31.42682617 44.22846802 33.39257812 44.27026367 C39.99200517 44.31800377 45.05657269 43.9611881 51 41 C55.29266995 36.48719313 56.37117097 33.39933406 56.2734375 27.3203125 C55.83911475 23.63477378 54.49981208 21.69210531 52 19 C45.2550378 14.94727413 38.22412666 15.66282609 30.5625 15.8125 C26.086875 15.874375 21.61125 15.93625 17 16 Z " fill="#1881BC" transform="translate(155,51)"/>
<path d="M0 0 C8.00961633 7.07826559 15.21109706 17.05112034 16.17700195 28.0078125 C16.65298521 44.4529391 14.52714331 56.75246778 2.93359375 69.22265625 C-7.01438492 78.74353029 -19.32565249 82.5387391 -32.890625 82.24609375 C-45.74437738 81.22877415 -57.0332591 76.09123545 -65.921875 66.70703125 C-75.52909014 54.19236943 -77.15407398 41.32685711 -76 26 C-73.82178162 15.02177938 -66.69808413 4.90901331 -58 -2 C-39.70383442 -13.1207152 -17.20567553 -13.87320785 0 0 Z M-50.6875 13.49609375 C-56.4483893 19.50182084 -59.14672511 27.2569193 -59.5 35.5 C-59.11055496 44.60003243 -55.59732255 53.60567199 -49 60 C-40.65823541 65.81747409 -33.07054308 66.84019807 -23 66 C-15.83556092 64.1202746 -9.41251221 59.89376971 -5.4921875 53.56640625 C-0.82463803 44.59137542 0.46389694 35.7584948 -2.125 25.875 C-4.76621383 18.07363692 -9.44386661 12.5044871 -16.44921875 8.1953125 C-28.5350243 2.53182629 -40.91013458 4.82773506 -50.6875 13.49609375 Z " fill="#1881BC" transform="translate(696,60)"/>
<path d="M0 0 C53.50766729 0 53.50766729 0 67.8125 13 C77.3296664 23.19324926 80.53521478 35.17799288 80.2734375 48.85546875 C79.72232067 60.75904662 73.74788471 70.73254404 65.25 78.8125 C46.87590641 93.93990909 22.36696252 89 0 89 C0 59.63 0 30.26 0 0 Z M16 16 C16 35.14 16 54.28 16 74 C37.69657714 75.21948061 37.69657714 75.21948061 55.5 65.8125 C61.89960598 58.07964278 63.66265492 49.38220829 62.77734375 39.51953125 C61.19355832 30.58575131 56.25574739 24.1999523 49 19 C37.78640564 14.73508894 37.78640564 14.73508894 16 16 Z " fill="#1881BC" transform="translate(474,51)"/>
<path d="M0 0 C21.78 0 43.56 0 66 0 C66 5.28 66 10.56 66 16 C49.5 16 33 16 16 16 C16 22.93 16 29.86 16 37 C30.52 37 45.04 37 60 37 C60 41.95 60 46.9 60 52 C45.48 52 30.96 52 16 52 C16 59.26 16 66.52 16 74 C32.83 74 49.66 74 67 74 C67 78.95 67 83.9 67 89 C44.89 89 22.78 89 0 89 C0 59.63 0 30.26 0 0 Z " fill="#1881BC" transform="translate(252,51)"/>
<path d="M0 0 C50.44117647 0 50.44117647 0 60.0078125 8.859375 C65.87648713 15.19459698 68.57365624 21.56411705 69.25 30.1875 C68.65244591 39.30019984 65.55939032 46.8611434 58.8125 53.125 C51.80675419 58.86519173 44.00053024 61.14359246 35.04296875 61.09765625 C34.04031982 61.09515869 33.0376709 61.09266113 32.00463867 61.09008789 C30.74498291 61.08098389 29.48532715 61.07187988 28.1875 61.0625 C24.165625 61.041875 20.14375 61.02125 16 61 C16 70.24 16 79.48 16 89 C10.72 89 5.44 89 0 89 C0 59.63 0 30.26 0 0 Z M16 16 C16 25.9 16 35.8 16 46 C19.465 46.061875 22.93 46.12375 26.5 46.1875 C27.57572266 46.21481201 28.65144531 46.24212402 29.75976562 46.27026367 C37.32219095 46.33514426 43.1510871 45.60645223 48.9375 40.3125 C51.78908163 35.73268707 52.60482446 32.16812812 51.58984375 26.8515625 C50.36644753 22.91032197 49.27613969 21.2243635 46 18.5625 C41.88609431 16.41984078 39.03520431 15.87812061 34.45703125 15.90234375 C33.48999268 15.90484131 32.5229541 15.90733887 31.52661133 15.90991211 C30.30095459 15.91901611 29.07529785 15.92812012 27.8125 15.9375 C23.914375 15.958125 20.01625 15.97875 16 16 Z " fill="#1881BC" transform="translate(66,51)"/>
<path d="M0 0 C2.14453125 1.59765625 2.14453125 1.59765625 4.14453125 5.59765625 C1.50453125 9.22765625 -1.13546875 12.85765625 -3.85546875 16.59765625 C-8.20928924 14.85612805 -12.21924493 12.89673036 -16.35546875 10.71875 C-21.76965844 8.29082431 -28.09791272 7.53350464 -33.85546875 9.1640625 C-37.29947503 10.53449 -38.76576708 11.46310375 -40.85546875 14.59765625 C-41.43928835 17.51258175 -41.43928835 17.51258175 -40.85546875 20.59765625 C-37.28350192 24.9949639 -33.75752484 26.67691605 -28.41796875 28.09765625 C-26.99160268 28.51362486 -25.56583081 28.93163579 -24.140625 29.3515625 C-23.42535645 29.55797363 -22.71008789 29.76438477 -21.97314453 29.97705078 C-0.9031047 36.15183073 -0.9031047 36.15183073 4.58203125 45.22265625 C7.77232818 52.11369761 8.14594244 58.90530009 6.01953125 66.22265625 C3.27714761 73.51028685 -1.48971311 78.11076215 -8.38671875 81.59375 C-20.16047854 86.38149725 -33.29276251 85.13834008 -45.02734375 80.83984375 C-51.12515711 78.16152241 -56.58032393 74.63793762 -61.85546875 70.59765625 C-60.36470441 67.31496305 -58.46926554 64.66688184 -56.23046875 61.84765625 C-55.59882813 61.0484375 -54.9671875 60.24921875 -54.31640625 59.42578125 C-53.83429688 58.8225 -53.3521875 58.21921875 -52.85546875 57.59765625 C-51.80359375 58.30341797 -51.80359375 58.30341797 -50.73046875 59.0234375 C-40.65489284 65.63553419 -31.31883458 70.179281 -18.98046875 67.91015625 C-15.28271196 66.9088168 -12.91269978 65.9965597 -10.85546875 62.59765625 C-10.25463305 59.78990479 -9.98928536 57.35222705 -10.85546875 54.59765625 C-14.50769765 50.89009055 -18.5194269 49.47491386 -23.41796875 48.09765625 C-24.84780515 47.6697681 -26.27749148 47.24137813 -27.70703125 46.8125 C-29.08953425 46.40649671 -30.47233041 46.00148982 -31.85546875 45.59765625 C-42.2327562 42.55603751 -51.51588692 39.40903668 -56.9921875 29.47265625 C-58.07130154 27.12887915 -58.65702534 25.17742059 -58.85546875 22.59765625 C-58.95859375 21.56640625 -59.06171875 20.53515625 -59.16796875 19.47265625 C-58.53950824 11.67974594 -56.35330327 5.48163517 -50.54296875 0.09765625 C-35.69076602 -11.82800407 -15.74006542 -8.64205642 0 0 Z " fill="#1881BC" transform="translate(397.85546875,57.40234375)"/>
<path d="M0 0 C5.28 0 10.56 0 16 0 C16 29.37 16 58.74 16 89 C10.72 89 5.44 89 0 89 C0 59.63 0 30.26 0 0 Z " fill="#1781BC" transform="translate(579,51)"/>
<path d="M0 0 C5.28 0 10.56 0 16 0 C16 29.37 16 58.74 16 89 C10.72 89 5.44 89 0 89 C0 59.63 0 30.26 0 0 Z " fill="#1782BD" transform="translate(429,51)"/>
<path d="M0 0 C2.8100346 1.79363911 4.50940468 3.01880935 6 6 C6.3751455 10.97067782 6.15878799 14.05151502 3 18 C-0.42919572 20.57189679 -3.83939486 20.502142 -8 20 C-12.04212164 17.52981455 -13.67811019 16.06034291 -15.0625 11.5 C-14.97682513 6.70220753 -13.50188324 4.61313385 -10.3125 1.1875 C-6.91635199 -0.5564679 -3.6895784 -0.68081506 0 0 Z M-7 3 C-7 3.33 -7 3.66 -7 4 C-5.35 4 -3.7 4 -2 4 C-2 3.67 -2 3.34 -2 3 C-3.65 3 -5.3 3 -7 3 Z M0 5 C-1.01540112 9.10223585 -1.01540112 9.10223585 0 13 C0.66 13 1.32 13 2 13 C2 10.69 2 8.38 2 6 C1.34 5.67 0.68 5.34 0 5 Z M-10 6 C-10.67801034 8.90073181 -10.67801034 8.90073181 -11 12 C-10.34 12.66 -9.68 13.32 -9 14 C-9 11.36 -9 8.72 -9 6 C-9.33 6 -9.66 6 -10 6 Z M-5 7 C-5 7.66 -5 8.32 -5 9 C-4.34 9 -3.68 9 -3 9 C-3 8.34 -3 7.68 -3 7 C-3.66 7 -4.32 7 -5 7 Z M-5 12 C-5 12.99 -5 13.98 -5 15 C-5.99 15.33 -6.98 15.66 -8 16 C-5.09926819 16.67801034 -5.09926819 16.67801034 -2 17 C-1.34 16.34 -0.68 15.68 0 15 C-0.99 15 -1.98 15 -3 15 C-3 14.01 -3 13.02 -3 12 C-3.66 12 -4.32 12 -5 12 Z " fill="#1A80BB" transform="translate(728,52)"/>
</svg>
